
		<svg xmlns="http://www.w3.org/2000/svg" xmlns:xlink="http://www.w3.org/1999/xlink" version="1.1" width="3142.090307652748" height="852.5418459164864">
			
			<g transform="scale(7.104515382637387) translate(10, 10)">
				<defs id="SvgjsDefs3761"><linearGradient id="SvgjsLinearGradient3765"><stop id="SvgjsStop3766" stop-color="#ffb295" offset="0"></stop><stop id="SvgjsStop3767" stop-color="#fedac6" offset="1"></stop></linearGradient><linearGradient id="SvgjsLinearGradient3768"><stop id="SvgjsStop3769" stop-color="#fe8dc6" offset="0"></stop><stop id="SvgjsStop3770" stop-color="#fed1c7" offset="1"></stop></linearGradient></defs><g id="SvgjsG3762" featureKey="root" fill="#5c61d6" transform="matrix(1,0,0,1,NaN,NaN)"></g><g id="SvgjsG3763" featureKey="symbol1" fill="url(#SvgjsLinearGradient3768)" transform="matrix(1,0,0,1,-5,0)"><path xmlns="http://www.w3.org/2000/svg" fill="none" stroke="url(#SvgjsLinearGradient3768)" stroke-width="2" stroke-linecap="round" stroke-linejoin="round" stroke-miterlimit="10" d="  M35.505,71.237C26.546,72.823,19.003,75.868,15,80.003C15.007,85.525,30.675,90,50,90c19.327,0,34.993-4.475,35-9.997  c-3.714-3.828-10.837-7.057-20.502-8.766C54.833,69.526,44.46,69.653,35.505,71.237z"></path><path xmlns="http://www.w3.org/2000/svg" fill="none" stroke="url(#SvgjsLinearGradient3768)" stroke-width="2" stroke-linecap="round" stroke-linejoin="round" stroke-miterlimit="10" d="  M50,10L15,79.999v0.004c4.003-4.135,11.546-7.18,20.505-8.766c8.955-1.584,19.328-1.711,28.993,0  c9.665,1.709,16.79,4.938,20.502,8.766v-0.004L50,10z"></path></g><g id="SvgjsG3764" featureKey="text1" fill="url(#SvgjsLinearGradient3765)" transform="matrix(3.3333333333333335,0,0,3.3333333333333335,97.33333508173625,-13.333333333333336)"><path d="M8.88 23.82 c0.02 0.08 0.04 0.18 -0.06 0.18 l-1.34 0 c-0.22 0 -0.32 -0.2 -0.32 -0.48 l0 -0.92 c-0.54 0.84 -1.3 1.5 -2.54 1.5 l-0.74 0 c-1.84 0 -3.08 -1.08 -3.08 -3.06 c0 -2 1.12 -2.9 3.04 -2.9 l3.32 0 l0 -0.74 c0 -1.52 -0.44 -1.94 -1.86 -1.94 l-0.48 0 c-1.04 0 -1.78 0.22 -2.32 0.5 c-0.26 0.1 -0.46 0.12 -0.56 -0.1 l-0.34 -0.76 c-0.06 -0.16 -0.06 -0.28 0.14 -0.4 c0.82 -0.52 1.98 -0.78 3.08 -0.78 l0.48 0 c2.48 0 3.54 1.12 3.54 3.54 l0 6.06 c0 0.1 0.02 0.22 0.04 0.3 z M4.84 22.54 c1.34 0 1.98 -0.64 2.32 -1.48 l0 -1.54 l-3.28 0 c-0.86 0 -1.4 0.36 -1.4 1.5 c0 1.12 0.54 1.52 1.4 1.52 l0.96 0 z M15.26 15.54 l-1.54 0 l0 5.4 c0 1.12 0.36 1.52 1.48 1.56 c0.24 0 0.34 0.16 0.32 0.38 l-0.02 0.82 c-0.02 0.22 -0.16 0.34 -0.4 0.34 c-2.38 -0.02 -3.08 -1.04 -3.08 -3.12 l0 -5.38 l-1.02 0 c-0.2 0 -0.3 -0.1 -0.3 -0.3 l0 -0.92 c0 -0.22 0.1 -0.32 0.3 -0.32 l1.02 0 l0 -1.22 c0 -0.2 0.1 -0.3 0.3 -0.3 l1.1 0 c0.2 0 0.3 0.1 0.3 0.3 l0 1.22 l1.52 0 c0.22 0 0.32 0.1 0.32 0.3 l0 0.94 c0 0.2 -0.12 0.3 -0.3 0.3 z  M21.74 13.92 c2.18 0 3.54 1.38 3.54 3.64 l0 2.92 c0 2.22 -1.36 3.62 -3.54 3.62 l-0.94 0 c-2.16 0 -3.54 -1.4 -3.54 -3.62 l0 -2.92 c0 -2.26 1.38 -3.64 3.54 -3.64 l0.94 0 z M23.6 20.64 l0 -3.24 c0 -1.32 -0.7 -1.94 -1.86 -1.94 l-0.94 0 c-1.16 0 -1.84 0.62 -1.84 1.94 l0 3.24 c0 1.26 0.68 1.9 1.84 1.9 l0.94 0 c1.16 0 1.86 -0.64 1.86 -1.9 z M38.14 13.92 c2.28 0 3.06 1.32 3.06 3.54 l0 6.24 c0 0.2 -0.1 0.3 -0.3 0.3 l-1.1 0 c-0.2 0 -0.3 -0.1 -0.3 -0.3 l0 -6.34 c0 -1.28 -0.44 -1.9 -1.68 -1.9 l-0.3 0 c-1.32 0 -2.12 0.74 -2.38 1.2 l0 7.04 c0 0.2 -0.1 0.3 -0.3 0.3 l-1.1 0 c-0.2 0 -0.3 -0.1 -0.3 -0.3 l0 -6.34 c0 -1.28 -0.44 -1.9 -1.68 -1.9 l-0.3 0 c-1.32 0 -2.12 0.74 -2.38 1.2 l0 7.04 c0 0.2 -0.1 0.3 -0.3 0.3 l-1.1 0 c-0.2 0 -0.3 -0.1 -0.3 -0.3 l0 -9.4 c0 -0.2 0.1 -0.3 0.3 -0.3 l1.1 0 c0.2 0 0.3 0.1 0.3 0.3 l0 1.1 c0.56 -0.86 1.52 -1.48 2.84 -1.48 l0.16 0 c1.56 0 2.42 0.64 2.8 1.76 l0.26 -0.28 c0.56 -0.86 1.52 -1.48 2.84 -1.48 l0.16 0 z M56.42 14 c0.2 0 0.3 0.12 0.24 0.34 l-2.78 9.28 c-0.06 0.24 -0.24 0.38 -0.46 0.38 l-0.92 0 c-0.2 0 -0.38 -0.14 -0.46 -0.38 c-0.68 -2.24 -1.44 -4.58 -2.14 -7.14 c-0.7 2.56 -1.48 4.9 -2.18 7.14 c-0.08 0.24 -0.26 0.38 -0.46 0.38 l-0.92 0 c-0.22 0 -0.38 -0.14 -0.46 -0.38 l-2.76 -9.28 c-0.06 -0.22 0.04 -0.34 0.24 -0.34 l1.12 0 c0.2 0 0.3 0.12 0.36 0.34 c0.64 2.42 1.22 4.9 2 7.6 c0.78 -2.7 1.5 -5.18 2.14 -7.6 c0.06 -0.22 0.16 -0.34 0.36 -0.34 l1.06 0 c0.22 0 0.32 0.12 0.38 0.34 c0.64 2.42 1.36 4.9 2.14 7.6 c0.78 -2.7 1.38 -5.18 2.02 -7.6 c0.06 -0.22 0.16 -0.34 0.36 -0.34 l1.12 0 z M62.699999999999996 13.92 c1.82 0 3.44 1.34 3.44 3.62 l0 1.52 c0 0.38 -0.24 0.62 -0.64 0.62 l-5.48 0 l0 1.02 c0 1.2 0.68 1.84 1.86 1.84 l0.82 0 c1.24 0 1.56 -0.36 2.06 -0.96 c0.14 -0.16 0.24 -0.18 0.44 -0.04 l0.58 0.4 c0.2 0.14 0.2 0.26 0.08 0.42 c-0.72 0.88 -1.4 1.74 -3.16 1.74 l-0.82 0 c-2.18 0 -3.6 -1.5 -3.6 -3.68 l0 -2.86 c0 -2.26 1.42 -3.64 3.6 -3.64 l0.82 0 z M64.42 18.3 l0 -0.9 c0 -1.32 -0.72 -1.94 -1.72 -1.94 l-0.82 0 c-1.18 0 -1.86 0.62 -1.86 1.96 l0 0.88 l4.4 0 z M68.46 10.3 c0 -0.2 0.1 -0.3 0.3 -0.3 l1.06 0 c0.2 0 0.3 0.1 0.3 0.3 l0 1.08 c0 0.2 -0.1 0.3 -0.3 0.3 l-1.06 0 c-0.2 0 -0.3 -0.1 -0.3 -0.3 l0 -1.08 z M68.44 14.3 c0 -0.2 0.1 -0.3 0.3 -0.3 l1.1 0 c0.2 0 0.3 0.1 0.3 0.3 l0 9.4 c0 0.2 -0.1 0.3 -0.3 0.3 l-1.1 0 c-0.2 0 -0.3 -0.1 -0.3 -0.3 l0 -9.4 z M80.25999999999999 14 c0.2 0 0.3 0.1 0.3 0.3 l0 10.2 c0 2.38 -1.4 3.5 -4.04 3.5 c-0.66 0 -1.24 -0.02 -1.92 -0.18 c-0.18 -0.02 -0.3 -0.14 -0.3 -0.3 l0 -0.94 c0 -0.16 0.12 -0.3 0.3 -0.26 c0.68 0.16 1.26 0.16 1.92 0.16 c1.52 0 2.34 -0.32 2.34 -1.96 l0 -1.74 c-0.38 0.76 -1.08 1.32 -2.3 1.32 l-0.6 0 c-2.14 0 -3.52 -1.4 -3.52 -3.62 l0 -2.92 c0 -2.26 1.38 -3.64 3.52 -3.64 l0.6 0 c1.22 0 1.92 0.5 2.3 1.22 l0 -0.84 c0 -0.2 0.12 -0.3 0.3 -0.3 l1.1 0 z M77.02 22.54 c1.16 0 1.84 -0.64 1.84 -1.9 l0 -3.24 c0 -1.32 -0.68 -1.94 -1.84 -1.94 l-1.04 0 c-1.16 0 -1.84 0.62 -1.84 1.94 l0 3.24 c0 1.26 0.68 1.9 1.84 1.9 l1.04 0 z M87.66 13.92 c2.28 0 3.06 1.32 3.06 3.54 l0 6.24 c0 0.2 -0.1 0.3 -0.3 0.3 l-1.1 0 c-0.2 0 -0.3 -0.1 -0.3 -0.3 l0 -6.34 c0 -1.28 -0.44 -1.9 -1.68 -1.9 l-0.3 0 c-1.32 0 -2.12 0.74 -2.38 1.2 l0 7.04 c0 0.2 -0.1 0.3 -0.3 0.3 l-1.1 0 c-0.2 0 -0.3 -0.1 -0.3 -0.3 l0 -13.4 c0 -0.2 0.1 -0.3 0.3 -0.3 l1.1 0 c0.2 0 0.3 0.1 0.3 0.3 l0 5.1 c0.56 -0.86 1.52 -1.48 2.84 -1.48 l0.16 0 z  M97.17999999999999 15.54 l-1.54 0 l0 5.4 c0 1.12 0.36 1.52 1.48 1.56 c0.24 0 0.34 0.16 0.32 0.38 l-0.02 0.82 c-0.02 0.22 -0.16 0.34 -0.4 0.34 c-2.38 -0.02 -3.08 -1.04 -3.08 -3.12 l0 -5.38 l-1.02 0 c-0.2 0 -0.3 -0.1 -0.3 -0.3 l0 -0.92 c0 -0.22 0.1 -0.32 0.3 -0.32 l1.02 0 l0 -1.22 c0 -0.2 0.1 -0.3 0.3 -0.3 l1.1 0 c0.2 0 0.3 0.1 0.3 0.3 l0 1.22 l1.52 0 c0.22 0 0.32 0.1 0.32 0.3 l0 0.94 c0 0.2 -0.12 0.3 -0.3 0.3 z "></path></g>
			</g>
		</svg>
	